<svg width="14" height="14" viewBox="0 0 14 14" fill="none" xmlns="http://www.w3.org/2000/svg">
<path d="M2.03955 13.4484V10.9683H4.5197" stroke="black" stroke-linecap="round" stroke-linejoin="round"/>
<path d="M13.3389 5.81494C13.956 9.09663 11.9478 12.3501 8.66898 13.2286C6.15951 13.901 3.59901 12.9965 2.03955 11.1225" stroke="black" stroke-linecap="round" stroke-linejoin="round"/>
<path d="M0.661145 8.18502C0.0440415 4.90334 2.05229 1.64992 5.33108 0.771373C7.84038 0.0990079 10.4007 1.00334 11.9602 2.87708" stroke="black" stroke-linecap="round" stroke-linejoin="round"/>
<path d="M11.9603 0.551758V3.03191H9.4801" stroke="black" stroke-linecap="round" stroke-linejoin="round"/>
<path d="M7 6.5C7.69036 6.5 8.25 5.94036 8.25 5.25C8.25 4.55964 7.69036 4 7 4C6.30964 4 5.75 4.55964 5.75 5.25C5.75 5.94036 6.30964 6.5 7 6.5Z" stroke="black"/>
<path d="M4.70801 9.5C5.09379 8.61705 5.97483 8 6.99999 8C8.02515 8 8.90619 8.61705 9.29196 9.5" stroke="black" stroke-linecap="round"/>
</svg>
